<svg xmlns="http://www.w3.org/2000/svg" width="32" height="26"><path fill="#FFF" fill-rule="evenodd" d="M31.1 3.075c-.278.524-1.543.875-2.872 1.035A6.587 6.587 0 0 0 31.115.478a13.184 13.184 0 0 1-4.168 1.593 6.554 6.554 0 0 0-4.792-2.074 6.565 6.565 0 0 0-6.565 6.566c0 .512.057 1.016.17 1.497A18.65 18.65 0 0 1 2.228 1.201a6.522 6.522 0 0 0-.889 3.298A6.562 6.562 0 0 0 4.26 9.964a6.524 6.524 0 0 1-2.974-.822l-.001.084a6.57 6.57 0 0 0 5.267 6.437 6.577 6.577 0 0 1-1.73.228c-.423 0-.835-.038-1.235-.117a6.566 6.566 0 0 0 6.133 4.559A13.169 13.169 0 0 1 0 23.052a18.579 18.579 0 0 0 10.063 2.951c12.077 0 18.679-10.004 18.679-18.68 0-.283-.006-.568-.017-.849 1.283-.926 2.394-2.082 2.375-3.399Z"/></svg>