<svg xmlns="http://www.w3.org/2000/svg" width="25" height="17">
  <path fill="#222" fill-rule="evenodd" d="M10.154 7.53s2.267-.18 2.267-3.013c0-2.832-1.855-4.215-4.203-4.215H.489v15.83h7.729s4.717.157 4.717-4.671c.001 0 .206-3.931-2.781-3.931ZM3.895 3.115h4.323s1.05 0 1.05 1.647c0 1.648-.618 1.886-1.32 1.886H3.895V3.115Zm4.104 10.204H3.895V9.088h4.323s1.566-.022 1.566 2.173c0 1.852-1.17 2.044-1.785 2.058Zm11.23-8.989c-5.713 0-5.708 6.081-5.708 6.081s-.392 6.05 5.708 6.05c0 0 5.082.311 5.082-4.21h-2.613s.086 1.703-2.382 1.703c0 0-2.615.186-2.615-2.753h7.697c.002.001.844-6.871-5.169-6.871Zm2.324 4.759h-4.879s.32-2.441 2.614-2.441c2.292 0 2.265 2.441 2.265 2.441Zm.61-7.854h-6.13v1.949h6.128V1.235h.002Z"/>
</svg>