<svg xmlns="http://www.w3.org/2000/svg" width="32" height="32">
  <path fill="#FFF" fill-rule="evenodd" d="M12.522 19.478V15.1c0 .515.31.204.695.204h4.174a.695.695 0 0 0 .696-.696v-.695a.695.695 0 0 0-.696-.696h-5.565c-.768 0-1.391.624-1.391 1.391v6.262c0 .767.623 1.391 1.391 1.391h4.87c.767 0 1.391-.624 1.391-1.391v-.696h-4.87a.695.695 0 0 1-.695-.696Zm7.652-9.739h-4.87c-.768 0-1.391.623-1.391 1.391v.696h4.87c.384 0 .695.311.695.695V15.1c0 1.284-.311 1.595-.695 1.595h-4.174c-.385 0-.696-.311-.696-1.595v2.986c0 .385.311.696.696.696h5.565c.767 0 1.391-.623 1.391-1.391V11.13c0-.768-.624-1.391-1.391-1.391ZM15.1 0C7.164 0 0 7.164 0 15.1c0 9.736 7.164 16 15.1 16 9.736 0 16-6.264 16-16 0-7.936-6.264-15.1-16-15.1Zm0 29.217C8.7 29.217 2.783 23.3 2.783 15.1 2.783 8.7 8.7 2.783 15.1 2.783c8.2 0 14.117 5.917 14.117 12.317 0 8.2-5.917 14.117-14.117 14.117Z"/>
</svg>
