<svg xmlns="http://www.w3.org/2000/svg" width="24" height="25">
  <path fill="#222" fill-rule="evenodd" d="M5.427 3.112c0 1.435-1.047 2.599-2.768 2.599-1.62 0-2.667-1.164-2.667-2.599 0-1.471 1.082-2.6 2.735-2.6 1.653 0 2.666 1.129 2.7 2.6ZM.128 24.491V7.765h5.131v16.726H.128ZM8.329 13.1c0-2.086-.067-3.831-.136-5.335h4.456l.238 2.326h.101c.675-1.096 2.329-2.703 5.098-2.703 3.374 0 5.906 2.292 5.906 7.218v9.886h-5.13v-9.27c0-2.155-.745-3.626-2.601-3.626-1.417 0-2.26.992-2.632 1.95-.135.341-.169.82-.169 1.299v9.647H8.329V13.1Z"/>
</svg>
