<?xml version="1.0" standalone="no"?>
<!DOCTYPE svg PUBLIC "-//W3C//DTD SVG 20010904//EN"
 "http://www.w3.org/TR/2001/REC-SVG-20010904/DTD/svg10.dtd">
<svg version="1.0" xmlns="http://www.w3.org/2000/svg"
 width="512.000000pt" height="512.000000pt" viewBox="0 0 512.000000 512.000000"
 preserveAspectRatio="xMidYMid meet">
<metadata>
Created by potrace 1.14, written by Peter Selinger 2001-2017
</metadata>
<g transform="translate(0.000000,512.000000) scale(0.100000,-0.100000)"
fill="#000000" stroke="none">
<path d="M2612 4903 c-5 -10 -8 -168 -7 -353 5 -588 5 -892 0 -1015 -13 -304
-15 -741 -3 -782 7 -24 16 -43 20 -43 3 0 9 -9 13 -20 10 -30 131 -150 208
-204 64 -46 68 -50 65 -84 -3 -35 -4 -35 -92 -63 -118 -38 -177 -84 -192 -150
-12 -50 -15 -125 -19 -503 -2 -213 -6 -390 -9 -393 -3 -3 -1 -13 4 -23 5 -10
7 -20 3 -23 -7 -8 -13 -1009 -6 -1020 3 -4 16 -1 29 8 13 8 24 12 24 8 0 -5 4
-3 8 2 4 6 47 31 95 55 49 25 104 59 123 75 l34 30 5 270 c3 149 8 356 10 460
2 105 7 307 10 450 6 269 11 320 36 320 8 0 76 -38 151 -85 76 -47 153 -94
171 -105 19 -11 67 -40 106 -65 40 -25 87 -54 105 -65 18 -11 65 -40 105 -65
40 -25 91 -56 114 -69 23 -13 45 -29 49 -35 4 -6 8 -7 8 -3 0 4 6 3 13 -3 14
-12 50 -35 222 -141 128 -79 126 -78 207 -126 90 -54 172 -62 246 -24 48 24
71 73 109 226 28 115 5 202 -69 253 -40 27 -286 171 -428 249 -57 32 -344 188
-370 202 -60 32 -117 64 -125 72 -5 5 -17 9 -27 9 -10 0 -18 5 -18 10 0 6 -6
10 -14 10 -7 0 -19 7 -26 15 -7 8 -16 13 -20 10 -5 -3 -11 -2 -14 3 -2 4 -34
23 -69 40 -73 37 -82 50 -60 82 35 50 28 50 827 50 435 0 754 4 768 9 39 16
76 55 103 108 14 28 25 55 25 60 0 5 14 31 31 57 l30 48 -77 117 c-49 74 -93
128 -118 147 l-41 29 -842 0 c-893 0 -895 0 -842 44 13 11 30 20 37 21 6 0 12
5 12 10 0 6 7 10 15 10 8 0 15 4 15 8 0 4 16 14 35 21 19 7 35 17 35 22 0 5 4
9 9 9 9 0 280 154 346 198 11 7 28 15 38 18 9 4 17 10 17 15 0 5 5 9 11 9 6 0
48 23 95 50 47 28 89 50 93 50 5 0 11 3 13 8 3 7 114 73 303 181 44 25 82 48
85 51 3 3 21 13 40 24 70 37 125 69 150 86 14 9 32 20 40 23 59 26 136 86 145
112 5 17 13 33 18 36 23 17 -68 145 -205 287 -42 44 -67 55 -127 55 -70 1 -77
-2 -312 -135 -13 -7 -26 -15 -29 -18 -3 -3 -16 -11 -30 -19 -114 -65 -266
-157 -268 -163 -2 -4 -8 -8 -12 -8 -5 0 -113 -64 -241 -141 -223 -136 -295
-175 -342 -185 -48 -11 -63 -13 -97 -17 -49 -5 -67 -17 -133 -85 l-57 -61 -1
82 c0 45 0 311 0 591 0 593 10 540 -123 665 -32 31 -78 75 -102 99 -24 23 -46
42 -48 42 -3 0 -9 -8 -14 -17z"/>
<path d="M2405 4724 c-191 -140 -202 -158 -210 -350 -4 -77 -8 -170 -10 -209
-7 -140 -17 -362 -19 -423 -2 -34 -5 -64 -7 -67 -3 -2 -2 -29 1 -60 5 -43 3
-59 -9 -69 -14 -13 -32 -4 -147 72 -136 91 -176 117 -389 252 -186 118 -233
148 -295 189 -30 19 -58 36 -62 36 -3 0 -17 9 -30 20 -13 11 -34 26 -48 32
-32 17 -64 36 -70 45 -3 3 -34 22 -70 40 -88 46 -137 45 -242 -7 -79 -39 -173
-119 -195 -165 -33 -70 -66 -147 -69 -166 -4 -24 37 -75 82 -101 45 -26 237
-143 287 -175 23 -15 52 -33 65 -40 12 -7 88 -52 167 -100 80 -49 150 -88 155
-88 6 0 10 -4 10 -8 0 -5 12 -15 28 -23 82 -41 149 -94 260 -204 92 -93 145
-136 212 -176 50 -29 90 -57 90 -61 0 -4 -37 -9 -82 -9 -201 -4 -664 0 -735 5
-43 4 -243 9 -444 12 -327 6 -370 5 -401 -10 -45 -22 -218 -192 -218 -215 0
-10 19 -33 42 -52 60 -48 100 -94 155 -173 50 -73 108 -117 174 -131 58 -13
1378 -9 1426 4 23 6 68 13 101 15 67 4 101 -7 55 -18 -38 -10 -193 -88 -193
-98 0 -4 -4 -8 -9 -8 -10 0 -120 -64 -213 -123 -31 -21 -61 -37 -67 -37 -5 0
-11 -4 -13 -8 -1 -4 -19 -17 -38 -29 -59 -34 -344 -210 -538 -330 -100 -62
-187 -113 -192 -113 -6 0 -10 -4 -10 -9 0 -5 -15 -16 -33 -24 -62 -30 -87 -61
-87 -111 0 -40 5 -50 45 -90 25 -25 52 -46 60 -46 8 0 15 -6 15 -12 0 -7 10
-25 23 -39 12 -15 31 -37 42 -50 41 -49 150 -89 226 -84 47 3 123 29 149 51
24 20 621 384 630 384 5 0 10 4 12 8 2 4 55 39 118 76 63 38 129 80 146 92 17
13 34 21 37 17 4 -3 7 -1 7 5 0 7 6 12 14 12 7 0 19 7 26 15 35 43 36 28 36
-562 0 -534 1 -582 18 -635 10 -31 26 -65 36 -75 20 -20 21 -22 140 -116 47
-37 97 -78 111 -91 28 -25 64 -42 54 -26 -20 33 -27 129 -29 400 -1 141 -5
261 -10 268 -4 6 -4 12 1 12 4 0 8 47 8 105 0 58 -3 105 -7 105 -4 0 -3 12 2
26 7 16 7 23 0 19 -6 -4 -7 2 -2 17 10 27 9 39 -1 55 -4 6 -3 14 3 18 6 4 7
12 1 24 -6 10 -6 23 -1 31 5 8 6 18 3 24 -9 14 -9 58 -1 84 5 15 4 21 -2 17
-7 -4 -7 3 0 19 5 14 6 26 2 26 -9 0 -7 53 3 69 3 6 3 11 -2 11 -4 0 -8 126
-8 279 0 253 -2 281 -18 299 -18 20 -166 98 -179 94 -5 -1 -8 2 -8 8 0 5 -6
10 -14 10 -22 0 -27 15 -16 45 17 45 22 87 25 197 2 112 11 139 45 133 22 -4
70 46 70 72 0 9 -16 45 -35 80 l-35 64 30 10 c16 6 30 15 30 20 0 5 6 9 13 9
14 0 66 76 68 100 3 35 23 820 34 1295 3 121 7 273 9 338 1 64 2 117 2 117 -1
0 -42 -30 -91 -66z"/>
</g>
</svg>
